<svg width="100" height="20" viewBox="0 0 100 20" fill="none" xmlns="http://www.w3.org/2000/svg">
<path d="M10.2291 14.6157L10 14.4976L9.77095 14.6157L4.77489 17.1907L5.68221 11.6433L5.72386 11.3887L5.54048 11.2072L1.54688 7.25497L7.10093 6.40183L7.35571 6.36269L7.47162 6.13246L9.99877 1.11262L12.5259 6.13246L12.6418 6.36269L12.8966 6.40183L18.451 7.25503L14.4606 11.2087L14.2776 11.3901L14.319 11.6444L15.2239 17.1906L10.2291 14.6157Z" fill="#FFDD33" stroke="#333333"/>
<path d="M30.2291 14.6157L30 14.4976L29.771 14.6157L24.7749 17.1907L25.6822 11.6433L25.7239 11.3887L25.5405 11.2072L21.5469 7.25497L27.1009 6.40183L27.3557 6.36269L27.4716 6.13246L29.9988 1.11262L32.5259 6.13246L32.6418 6.36269L32.8966 6.40183L38.451 7.25503L34.4606 11.2087L34.2776 11.3901L34.319 11.6444L35.2239 17.1906L30.2291 14.6157Z" fill="#FFDD33" stroke="#333333"/>
<path d="M50.2291 14.6157L50 14.4976L49.771 14.6157L44.7749 17.1907L45.6822 11.6433L45.7239 11.3887L45.5405 11.2072L41.5469 7.25497L47.1009 6.40183L47.3557 6.36269L47.4716 6.13246L49.9988 1.11262L52.5259 6.13246L52.6418 6.36269L52.8966 6.40183L58.451 7.25503L54.4606 11.2087L54.2776 11.3901L54.319 11.6444L55.2239 17.1906L50.2291 14.6157Z" fill="#FFDD33" stroke="#333333"/>
<path d="M70.2291 14.6157L70 14.4976L69.771 14.6157L64.7749 17.1907L65.6822 11.6433L65.7239 11.3887L65.5405 11.2072L61.5469 7.25497L67.1009 6.40183L67.3557 6.36269L67.4716 6.13246L69.9988 1.11262L72.5259 6.13246L72.6418 6.36269L72.8966 6.40183L78.451 7.25503L74.4606 11.2087L74.2776 11.3901L74.319 11.6444L75.2239 17.1906L70.2291 14.6157Z" fill="#FFDD33" stroke="#333333"/>
<path d="M90.2291 14.6157L90 14.4976L89.771 14.6157L84.7749 17.1907L85.6822 11.6433L85.7239 11.3887L85.5405 11.2072L81.5469 7.25497L87.1009 6.40183L87.3557 6.36269L87.4716 6.13246L89.9988 1.11262L92.5259 6.13246L92.6418 6.36269L92.8966 6.40183L98.451 7.25503L94.4606 11.2087L94.2776 11.3901L94.319 11.6444L95.2239 17.1906L90.2291 14.6157Z" fill="#FFDD33" stroke="#333333"/>
</svg>
